<?xml version="1.0" encoding="UTF-8" standalone="no"?>
<!DOCTYPE svg PUBLIC "-//W3C//DTD SVG 20010904//EN" "http://www.w3.org/TR/2001/REC-SVG-20010904/DTD/svg10.dtd">
<svg version="1.0" xmlns="http://www.w3.org/2000/svg" width="500.000000pt" height="500.000000pt" viewBox="0 0 500.000000 500.000000" preserveAspectRatio="xMidYMid meet">
<metadata>
</metadata>
<g transform="translate(0.000000,250.000000) scale(0.100000,-0.100000)" fill="#000000" stroke="none">
<path d=" m2178 1482 c9 -7 12 -59 10 -228 l-3 -219 -219 -3 c-153 -2 -223 1 -232 9 -11 9 -14 44 -14 148 l0 138 -157 14 c-211 19 -399 17 -483 -5 -151 -40 -266 -126 -319 -236 -24 -50 -26 -65 -26 -180 1 -110 4 -134 28 -205 36 -101 105 -239 167 -332 26 -40 45 -75 42 -78 -3 -3 -21 -5 -39 -5 -47 0 -72 30 -143 174 -102 209 -134 344 -119 500 20 205 163 347 404 403 120 27 408 25 525 -4 47 -12 93 -25 103 -28 15 -6 17 0 17 53 0 94 -5 92 238 92 114 0 213 -4 220 -8z m187 -325 c385 -152 829 -405 1156 -659 167 -129 359 -298 359 -314 0 -37 -50 -10 -155 84 -362 321 -750 564 -1302 813 -151 68 -193 92 -193 111 0 15 24 9 135 -35z m-1135 -977 l0 -40 -140 0 -140 0 0 -285 0 -285 -45 0 -45 0 0 285 0 285 -140 0 -140 0 0 40 0 40 325 0 325 0 0 -40z m140 -234 c0 -220 3 -276 14 -285 9 -8 82 -11 242 -9 l229 3 3 283 2 282 45 0 45 0 0 -267 c0 -153 -5 -284 -10 -305 -6 -20 -22 -46 -37 -58 -24 -19 -39 -20 -287 -20 -276 1 -275 1 -309 50 -15 22 -17 57 -17 312 l0 288 40 0 40 0 0 -274z m1288 245 c38 -39 42 -65 42 -306 0 -218 -7 -264 -47 -295 -25 -19 -39 -20 -319 -20 l-294 0 0 325 0 325 294 0 294 0 30 -29z m748 -5 c26 -26 34 -42 34 -70 0 -35 -1 -36 -40 -36 -32 0 -40 4 -40 19 0 39 -19 41 -256 39 l-229 -3 0 -95 0 -95 245 -5 c320 -7 320 -7 320 -193 0 -105 -8 -131 -50 -164 -11 -9 -86 -12 -276 -13 -248 0 -263 1 -287 20 -23 19 -47 72 -47 108 0 8 16 12 44 12 41 0 45 -2 48 -27 l3 -28 229 -3 c160 -2 233 1 242 9 19 15 19 162 1 177 -8 7 -103 12 -252 14 -253 3 -266 5 -295 52 -16 26 -25 147 -15 212 5 34 15 55 37 76 l30 28 260 0 260 0 34 -34z m1374 -6 l0 -40 -145 0 -145 0 0 -285 0 -285 -40 0 -40 0 0 285 0 285 -145 0 -145 0 0 40 0 40 330 0 330 0 0 -40z m-785 -94 c66 -28 70 -44 73 -293 l3 -223 -239 0 c-226 0 -241 1 -265 20 -35 28 -47 76 -47 188 l0 92 230 0 231 0 -3 68 -3 67 -227 3 -228 2 0 45 0 45 220 0 c168 0 229 -3 255 -14z m347 -633 c170 -373 111 -651 -164 -783 -164 -79 -384 -99 -646 -59 -492 75 -1032 299 -1547 642 -145 97 -335 238 -335 249 0 15 100 8 149 -11 27 -10 107 -59 178 -109 216 -152 377 -248 608 -363 489 -242 876 -352 1240 -353 172 -1 236 10 343 59 76 35 163 125 192 200 50 129 35 307 -40 472 -29 64 -37 103 -23 116 11 12 14 9 45 -60z M2132 128 c-14 -14 -17 -444 -4 -466 7 -9 62 -12 243 -10 l234 3 0 240 0 240 -230 3 c-171 2 -234 -1 -243 -10z M3612 -277 l3 -68 183 -3 182 -2 0 70 0 70 -185 0 -186 0 3 -67z" />
</g>
</svg>
